<svg xmlns="http://www.w3.org/2000/svg" width="1200" height="760" viewBox="0 0 1200 760" role="img" aria-label="macOS file picker selecting manifest.json">
  <rect width="1200" height="760" fill="#f5f5f5"/>
  <rect x="132" y="76" width="936" height="608" rx="16" fill="#ffffff" stroke="#d7d7d7"/>
  <rect x="132" y="76" width="936" height="52" rx="16" fill="#f3f3f3"/>
  <circle cx="160" cy="102" r="6" fill="#ff5f57"/>
  <circle cx="181" cy="102" r="6" fill="#febc2e"/>
  <circle cx="202" cy="102" r="6" fill="#28c840"/>
  <text x="520" y="108" text-anchor="middle" font-family="Inter, Arial, sans-serif" font-size="15" fill="#242424" font-weight="700">pinterest-to-figma</text>
  <rect x="164" y="154" width="230" height="490" rx="12" fill="#f6f6f6"/>
  <text x="190" y="198" font-family="Inter, Arial, sans-serif" font-size="15" fill="#555">Applications</text>
  <text x="190" y="238" font-family="Inter, Arial, sans-serif" font-size="15" fill="#555">Desktop</text>
  <text x="190" y="278" font-family="Inter, Arial, sans-serif" font-size="15" fill="#555">Documents</text>
  <rect x="420" y="156" width="610" height="408" rx="10" fill="#fff" stroke="#ececec"/>
  <text x="454" y="202" font-family="Inter, Arial, sans-serif" font-size="14" fill="#777">Name</text>
  <line x1="420" y1="222" x2="1030" y2="222" stroke="#ececec"/>
  <text x="454" y="266" font-family="Inter, Arial, sans-serif" font-size="16" fill="#333">AGENTS.md</text>
  <text x="454" y="310" font-family="Inter, Arial, sans-serif" font-size="16" fill="#333">README.md</text>
  <rect x="436" y="330" width="560" height="42" rx="7" fill="#0d99ff"/>
  <text x="454" y="357" font-family="Inter, Arial, sans-serif" font-size="16" fill="#fff" font-weight="700">manifest.json</text>
  <text x="454" y="402" font-family="Inter, Arial, sans-serif" font-size="16" fill="#333">code.js</text>
  <text x="454" y="446" font-family="Inter, Arial, sans-serif" font-size="16" fill="#333">ui.html</text>
  <rect x="904" y="604" width="126" height="42" rx="8" fill="#0d99ff"/>
  <text x="967" y="631" text-anchor="middle" font-family="Inter, Arial, sans-serif" font-size="15" fill="#fff" font-weight="700">Open</text>
  <text x="160" y="714" font-family="Inter, Arial, sans-serif" font-size="22" fill="#1f1f1f" font-weight="800">Step 2</text>
  <text x="248" y="714" font-family="Inter, Arial, sans-serif" font-size="22" fill="#1f1f1f">Choose <tspan font-weight="700">manifest.json</tspan>, then click Open.</text>
</svg>
