<svg xmlns="http://www.w3.org/2000/svg" width="1200" height="760" viewBox="0 0 1200 760" role="img" aria-label="Finder showing Start Pinterest to Figma command launcher">
  <rect width="1200" height="760" fill="#f5f5f5"/>
  <rect x="118" y="72" width="964" height="582" rx="16" fill="#fff" stroke="#d7d7d7"/>
  <rect x="118" y="72" width="964" height="52" rx="16" fill="#f3f3f3"/>
  <circle cx="146" cy="98" r="6" fill="#ff5f57"/>
  <circle cx="167" cy="98" r="6" fill="#febc2e"/>
  <circle cx="188" cy="98" r="6" fill="#28c840"/>
  <text x="600" y="105" text-anchor="middle" font-family="Inter, Arial, sans-serif" font-size="15" fill="#242424" font-weight="700">pinterest-to-figma</text>
  <rect x="172" y="168" width="856" height="62" rx="10" fill="#f7f7f7"/>
  <text x="216" y="206" font-family="Inter, Arial, sans-serif" font-size="17" fill="#333">README.md</text>
  <rect x="172" y="246" width="856" height="62" rx="10" fill="#e8f3ff" stroke="#0d99ff"/>
  <rect x="214" y="265" width="24" height="24" rx="5" fill="#242424"/>
  <text x="226" y="283" text-anchor="middle" font-family="Inter, Arial, sans-serif" font-size="13" fill="#fff">&gt;</text>
  <text x="258" y="284" font-family="Inter, Arial, sans-serif" font-size="17" fill="#111" font-weight="700">Start Pinterest to Figma.command</text>
  <rect x="172" y="324" width="856" height="62" rx="10" fill="#f7f7f7"/>
  <text x="216" y="362" font-family="Inter, Arial, sans-serif" font-size="17" fill="#333">manifest.json</text>
  <rect x="172" y="402" width="856" height="62" rx="10" fill="#f7f7f7"/>
  <text x="216" y="440" font-family="Inter, Arial, sans-serif" font-size="17" fill="#333">server.js</text>
  <path d="M825 277 C910 260, 966 222, 1014 158" fill="none" stroke="#0d99ff" stroke-width="5" stroke-linecap="round"/>
  <circle cx="825" cy="277" r="12" fill="#0d99ff"/>
  <text x="160" y="710" font-family="Inter, Arial, sans-serif" font-size="22" fill="#1f1f1f" font-weight="800">Step 3</text>
  <text x="248" y="710" font-family="Inter, Arial, sans-serif" font-size="22" fill="#1f1f1f">After the first-time import, double-click the launcher whenever you want to use the plugin.</text>
</svg>
