<svg xmlns="http://www.w3.org/2000/svg" width="1200" height="760" viewBox="0 0 1200 760" role="img" aria-label="Figma Plugins Development menu running Pinterest to Figma">
  <rect width="1200" height="760" fill="#f5f5f5"/>
  <rect x="0" y="0" width="1200" height="52" fill="#242424"/>
  <text x="110" y="32" font-family="Inter, Arial, sans-serif" font-size="16" fill="#fff" font-weight="700">Figma</text>
  <rect x="385" y="9" width="78" height="34" rx="7" fill="#0d99ff"/>
  <text x="404" y="32" font-family="Inter, Arial, sans-serif" font-size="15" fill="#fff" font-weight="700">Plugins</text>
  <rect x="385" y="54" width="310" height="188" rx="12" fill="#2c2c2c"/>
  <text x="409" y="92" font-family="Inter, Arial, sans-serif" font-size="16" fill="#fff">Development</text>
  <path d="M666 86l8 8-8 8" fill="none" stroke="#fff" stroke-width="2"/>
  <rect x="705" y="54" width="360" height="160" rx="12" fill="#2c2c2c"/>
  <rect x="721" y="114" width="328" height="42" rx="8" fill="#0d99ff"/>
  <text x="741" y="141" font-family="Inter, Arial, sans-serif" font-size="15" fill="#fff" font-weight="700">Pinterest to Figma</text>
  <text x="741" y="94" font-family="Inter, Arial, sans-serif" font-size="15" fill="#bdbdbd">Import plugin from manifest...</text>
  <rect x="760" y="260" width="360" height="224" rx="18" fill="#2c2c2c" stroke="#1c1c1c"/>
  <text x="784" y="316" font-family="Inter, Arial, sans-serif" font-size="20" fill="#fff" font-weight="800">Pinterest to Figma</text>
  <text x="784" y="344" font-family="Inter, Arial, sans-serif" font-size="13" fill="#d0d0d0">Imports images, GIFs, and video stills directly into the canvas.</text>
  <text x="784" y="386" font-family="Inter, Arial, sans-serif" font-size="13" fill="#fff" font-weight="700">Pinterest Board URL</text>
  <rect x="784" y="402" width="312" height="38" rx="8" fill="#3a3a3a"/>
  <rect x="784" y="452" width="312" height="38" rx="8" fill="#0d99ff"/>
  <text x="940" y="476" text-anchor="middle" font-family="Inter, Arial, sans-serif" font-size="13" fill="#fff" font-weight="800">Add pins to Figma</text>
  <text x="160" y="646" font-family="Inter, Arial, sans-serif" font-size="28" fill="#1f1f1f" font-weight="800">Step 4</text>
  <text x="160" y="688" font-family="Inter, Arial, sans-serif" font-size="22" fill="#1f1f1f">Run the plugin, paste a public board URL, then click Add pins to Figma.</text>
</svg>
